<svg width="127" height="30" viewBox="0 0 127 30" fill="none" xmlns="http://www.w3.org/2000/svg">
<path fill-rule="evenodd" clip-rule="evenodd" d="M20.89 4.99307H9.40039V0L25.7643 0V16.7624H20.89V4.99307Z" fill="#55B02E"/>
<path fill-rule="evenodd" clip-rule="evenodd" d="M11.9152 14.9286C11.1709 14.4191 10.2958 14.1472 9.40057 14.1472V9.15414C11.2598 9.15414 13.0773 9.7189 14.6233 10.777C16.1692 11.8351 17.3741 13.339 18.0856 15.0986C18.7971 16.8582 18.9832 18.7943 18.6205 20.6623C18.2578 22.5302 17.3625 24.246 16.0478 25.5927C14.7331 26.9394 13.0581 27.8565 11.2345 28.2281C9.41099 28.5996 7.52084 28.4089 5.80312 27.6801C4.08539 26.9513 2.61722 25.717 1.58427 24.1335C0.551327 22.5499 -3.54174e-06 20.6881 0 18.7836L4.87437 18.7836C4.87437 19.7006 5.13982 20.597 5.63717 21.3595C6.13451 22.1219 6.84141 22.7162 7.66846 23.0671C8.49552 23.418 9.40559 23.5099 10.2836 23.331C11.1616 23.1521 11.9681 22.7105 12.6011 22.0621C13.2341 21.4137 13.6652 20.5875 13.8398 19.6882C14.0144 18.7888 13.9248 17.8565 13.5822 17.0094C13.2397 16.1622 12.6595 15.438 11.9152 14.9286Z" fill="#55B02E"/>
<path d="M35.6092 22.5413C35.1132 22.5413 34.7212 22.4053 34.4332 22.1333C34.1612 21.8453 34.0252 21.4373 34.0252 20.9093V7.0613C34.0252 6.5333 34.1612 6.1333 34.4332 5.8613C34.7212 5.5733 35.1292 5.4293 35.6572 5.4293H44.0332C44.4492 5.4293 44.7612 5.5333 44.9692 5.7413C45.1772 5.9493 45.2812 6.2453 45.2812 6.6293C45.2812 7.0293 45.1772 7.3413 44.9692 7.5653C44.7612 7.7733 44.4492 7.8773 44.0332 7.8773H37.0972V12.6533H43.5292C43.9292 12.6533 44.2332 12.7573 44.4412 12.9653C44.6652 13.1733 44.7772 13.4693 44.7772 13.8533C44.7772 14.2533 44.6652 14.5653 44.4412 14.7893C44.2332 14.9973 43.9292 15.1013 43.5292 15.1013H37.0972V20.9093C37.0972 21.9973 36.6012 22.5413 35.6092 22.5413ZM49.6627 22.5173C49.1827 22.5173 48.8147 22.3733 48.5587 22.0853C48.3027 21.7973 48.1747 21.3973 48.1747 20.8853V12.0773C48.1747 11.5493 48.3027 11.1493 48.5587 10.8773C48.8147 10.5893 49.1827 10.4453 49.6627 10.4453C50.1427 10.4453 50.5107 10.5893 50.7667 10.8773C51.0387 11.1493 51.1747 11.5493 51.1747 12.0773V20.8853C51.1747 21.3973 51.0467 21.7973 50.7907 22.0853C50.5347 22.3733 50.1587 22.5173 49.6627 22.5173ZM49.6627 8.2133C49.1027 8.2133 48.6627 8.0773 48.3427 7.8053C48.0387 7.5173 47.8867 7.1253 47.8867 6.6293C47.8867 6.1173 48.0387 5.7253 48.3427 5.4533C48.6627 5.1813 49.1027 5.0453 49.6627 5.0453C50.2387 5.0453 50.6787 5.1813 50.9827 5.4533C51.2867 5.7253 51.4387 6.1173 51.4387 6.6293C51.4387 7.1253 51.2867 7.5173 50.9827 7.8053C50.6787 8.0773 50.2387 8.2133 49.6627 8.2133ZM55.7799 22.5413C55.2999 22.5413 54.9319 22.4133 54.6759 22.1573C54.4199 21.8853 54.2919 21.5013 54.2919 21.0053V11.9333C54.2919 11.4373 54.4199 11.0613 54.6759 10.8053C54.9319 10.5493 55.2919 10.4213 55.7559 10.4213C56.2199 10.4213 56.5799 10.5493 56.8359 10.8053C57.0919 11.0613 57.2199 11.4373 57.2199 11.9333V13.5653L56.9559 12.9653C57.3079 12.1173 57.8519 11.4773 58.5879 11.0453C59.3399 10.5973 60.1879 10.3733 61.1319 10.3733C62.0759 10.3733 62.8519 10.5493 63.4599 10.9013C64.0679 11.2533 64.5239 11.7893 64.8279 12.5093C65.1319 13.2133 65.2839 14.1093 65.2839 15.1973V21.0053C65.2839 21.5013 65.1559 21.8853 64.8999 22.1573C64.6439 22.4133 64.2759 22.5413 63.7959 22.5413C63.3159 22.5413 62.9399 22.4133 62.6679 22.1573C62.4119 21.8853 62.2839 21.5013 62.2839 21.0053V15.3413C62.2839 14.4293 62.1079 13.7653 61.7559 13.3493C61.4199 12.9333 60.8919 12.7253 60.1719 12.7253C59.2919 12.7253 58.5879 13.0053 58.0599 13.5653C57.5479 14.1093 57.2919 14.8373 57.2919 15.7493V21.0053C57.2919 22.0293 56.7879 22.5413 55.7799 22.5413ZM74.235 22.5413C73.739 22.5413 73.355 22.4053 73.083 22.1333C72.827 21.8453 72.699 21.4533 72.699 20.9573V7.9973H68.019C67.603 7.9973 67.275 7.8853 67.035 7.6613C66.811 7.4213 66.699 7.1013 66.699 6.7013C66.699 6.2853 66.811 5.9733 67.035 5.7653C67.275 5.5413 67.603 5.4293 68.019 5.4293H80.451C80.867 5.4293 81.187 5.5413 81.411 5.7653C81.651 5.9733 81.771 6.2853 81.771 6.7013C81.771 7.1013 81.651 7.4213 81.411 7.6613C81.187 7.8853 80.867 7.9973 80.451 7.9973H75.771V20.9573C75.771 21.4533 75.643 21.8453 75.387 22.1333C75.131 22.4053 74.747 22.5413 74.235 22.5413ZM82.8982 22.5413C82.4022 22.5413 82.0182 22.4133 81.7462 22.1573C81.4902 21.8853 81.3622 21.5013 81.3622 21.0053V11.9333C81.3622 11.4373 81.4902 11.0613 81.7462 10.8053C82.0022 10.5493 82.3622 10.4213 82.8262 10.4213C83.2902 10.4213 83.6502 10.5493 83.9062 10.8053C84.1622 11.0613 84.2902 11.4373 84.2902 11.9333V13.4453H84.0502C84.2742 12.4853 84.7142 11.7573 85.3702 11.2613C86.0262 10.7653 86.8982 10.4693 87.9862 10.3733C88.3222 10.3413 88.5862 10.4293 88.7782 10.6373C88.9862 10.8293 89.1062 11.1333 89.1382 11.5493C89.1702 11.9493 89.0742 12.2773 88.8502 12.5333C88.6422 12.7733 88.3222 12.9173 87.8902 12.9653L87.3622 13.0133C86.3862 13.1093 85.6502 13.4133 85.1542 13.9253C84.6582 14.4213 84.4102 15.1253 84.4102 16.0373V21.0053C84.4102 21.5013 84.2822 21.8853 84.0262 22.1573C83.7702 22.4133 83.3942 22.5413 82.8982 22.5413ZM94.5075 22.5893C93.6595 22.5893 92.8995 22.4293 92.2275 22.1093C91.5715 21.7733 91.0515 21.3253 90.6675 20.7653C90.2995 20.2053 90.1155 19.5733 90.1155 18.8693C90.1155 18.0053 90.3395 17.3253 90.7875 16.8293C91.2355 16.3173 91.9635 15.9493 92.9715 15.7253C93.9795 15.5013 95.3315 15.3893 97.0275 15.3893H98.2275V17.1173H97.0515C96.0595 17.1173 95.2675 17.1653 94.6755 17.2613C94.0835 17.3573 93.6595 17.5253 93.4035 17.7653C93.1635 17.9893 93.0435 18.3093 93.0435 18.7253C93.0435 19.2533 93.2275 19.6853 93.5955 20.0213C93.9635 20.3573 94.4755 20.5253 95.1315 20.5253C95.6595 20.5253 96.1235 20.4053 96.5235 20.1653C96.9395 19.9093 97.2675 19.5653 97.5075 19.1333C97.7475 18.7013 97.8675 18.2053 97.8675 17.6453V14.8853C97.8675 14.0853 97.6915 13.5093 97.3395 13.1573C96.9875 12.8053 96.3955 12.6293 95.5635 12.6293C95.0995 12.6293 94.5955 12.6853 94.0515 12.7973C93.5235 12.9093 92.9635 13.1013 92.3715 13.3733C92.0675 13.5173 91.7955 13.5573 91.5555 13.4933C91.3315 13.4293 91.1555 13.3013 91.0275 13.1093C90.8995 12.9013 90.8355 12.6773 90.8355 12.4373C90.8355 12.1973 90.8995 11.9653 91.0275 11.7413C91.1555 11.5013 91.3715 11.3253 91.6755 11.2133C92.4115 10.9093 93.1155 10.6933 93.7875 10.5653C94.4755 10.4373 95.0995 10.3733 95.6595 10.3733C96.8115 10.3733 97.7555 10.5493 98.4915 10.9013C99.2435 11.2533 99.8035 11.7893 100.171 12.5093C100.539 13.2133 100.723 14.1253 100.723 15.2453V21.0053C100.723 21.5013 100.603 21.8853 100.363 22.1573C100.123 22.4133 99.7795 22.5413 99.3315 22.5413C98.8835 22.5413 98.5315 22.4133 98.2755 22.1573C98.0355 21.8853 97.9155 21.5013 97.9155 21.0053V19.8533H98.1075C97.9955 20.4133 97.7715 20.9013 97.4355 21.3173C97.1155 21.7173 96.7075 22.0293 96.2115 22.2533C95.7155 22.4773 95.1475 22.5893 94.5075 22.5893ZM109.192 22.5893C107.96 22.5893 106.888 22.3413 105.976 21.8453C105.064 21.3333 104.36 20.6133 103.864 19.6853C103.368 18.7573 103.12 17.6693 103.12 16.4213C103.12 15.4773 103.256 14.6373 103.528 13.9013C103.816 13.1493 104.224 12.5173 104.752 12.0053C105.28 11.4773 105.92 11.0773 106.672 10.8053C107.424 10.5173 108.264 10.3733 109.192 10.3733C109.72 10.3733 110.288 10.4453 110.896 10.5893C111.52 10.7333 112.104 10.9733 112.648 11.3093C112.904 11.4693 113.072 11.6613 113.152 11.8853C113.232 12.1093 113.248 12.3413 113.2 12.5813C113.152 12.8053 113.048 13.0053 112.888 13.1813C112.744 13.3413 112.56 13.4453 112.336 13.4933C112.112 13.5253 111.864 13.4693 111.592 13.3253C111.24 13.1173 110.88 12.9653 110.512 12.8693C110.144 12.7573 109.792 12.7013 109.456 12.7013C108.928 12.7013 108.464 12.7893 108.064 12.9653C107.664 13.1253 107.32 13.3653 107.032 13.6853C106.76 13.9893 106.552 14.3733 106.408 14.8373C106.264 15.3013 106.192 15.8373 106.192 16.4453C106.192 17.6293 106.472 18.5653 107.032 19.2533C107.608 19.9253 108.416 20.2613 109.456 20.2613C109.792 20.2613 110.136 20.2133 110.488 20.1173C110.856 20.0213 111.224 19.8693 111.592 19.6613C111.864 19.5173 112.104 19.4693 112.312 19.5173C112.536 19.5653 112.72 19.6773 112.864 19.8533C113.008 20.0133 113.096 20.2133 113.128 20.4533C113.16 20.6773 113.128 20.9013 113.032 21.1253C112.952 21.3493 112.792 21.5333 112.552 21.6773C112.024 21.9973 111.464 22.2293 110.872 22.3733C110.28 22.5173 109.72 22.5893 109.192 22.5893ZM116.577 22.5413C116.097 22.5413 115.729 22.4133 115.473 22.1573C115.217 21.8853 115.089 21.5013 115.089 21.0053V6.7493C115.089 6.2533 115.217 5.8773 115.473 5.6213C115.729 5.3653 116.097 5.2373 116.577 5.2373C117.057 5.2373 117.425 5.3653 117.681 5.6213C117.953 5.8773 118.089 6.2533 118.089 6.7493V15.6053H118.137L122.097 11.4293C122.417 11.1093 122.697 10.8613 122.937 10.6853C123.177 10.5093 123.505 10.4213 123.921 10.4213C124.337 10.4213 124.649 10.5333 124.857 10.7573C125.081 10.9653 125.193 11.2213 125.193 11.5253C125.193 11.8293 125.049 12.1333 124.761 12.4373L120.585 16.8533V15.6053L125.169 20.5493C125.457 20.8533 125.585 21.1653 125.553 21.4853C125.537 21.7893 125.409 22.0453 125.169 22.2533C124.929 22.4453 124.625 22.5413 124.257 22.5413C123.809 22.5413 123.449 22.4533 123.177 22.2773C122.921 22.1013 122.633 21.8373 122.313 21.4853L118.137 17.1173H118.089V21.0053C118.089 22.0293 117.585 22.5413 116.577 22.5413Z" fill="white"/>
</svg>
